<svg xmlns="http://www.w3.org/2000/svg" viewBox="0 0 360 120" fill="none" role="img" aria-label="Centrol Matrix">
  <g stroke="currentColor" stroke-width="9" stroke-linecap="round" stroke-linejoin="round">
    <!-- Outer C: open ring on the right -->
    <path d="M96 38 C 72 30, 44 38, 38 60 C 32 82, 54 96, 78 92 C 92 90, 100 80, 100 70" />
    <!-- Inner o -->
    <circle cx="66" cy="62" r="16" />
    <!-- Stem from o into the M -->
    <path d="M82 62 H 118" />
    <!-- M -->
    <path d="M118 86 V 44 L 138 70 L 158 44 V 86" />
    <!-- Decaying soundwave tail -->
    <path d="M158 70 C 170 70, 172 48, 184 48 C 196 48, 198 80, 210 80 C 222 80, 224 56, 236 56 C 248 56, 250 74, 262 74 C 274 74, 276 62, 288 62 C 300 62, 302 70, 314 68 C 322 67, 328 66, 334 65" />
  </g>
</svg>
